<?xml version="1.0" encoding="UTF-8" standalone="no"?>
<svg
   xmlns:dc="http://purl.org/dc/elements/1.1/"
   xmlns:cc="http://creativecommons.org/ns#"
   xmlns:rdf="http://www.w3.org/1999/02/22-rdf-syntax-ns#"
   xmlns:svg="http://www.w3.org/2000/svg"
   xmlns="http://www.w3.org/2000/svg"
   id="svg8"
   version="1.1"
   viewBox="0 0 63.464838 43.855734"
   height="165.75395"
   width="239.86711">
  <defs
     id="defs2" />
  <metadata
     id="metadata5">
    <rdf:RDF>
      <cc:Work
         rdf:about="">
        <dc:format>image/svg+xml</dc:format>
        <dc:type
           rdf:resource="http://purl.org/dc/dcmitype/StillImage" />
        <dc:title></dc:title>
      </cc:Work>
    </rdf:RDF>
  </metadata>
  <g
     transform="translate(-73.26758,-111.8241)"
     id="layer1">
    <path
       id="path815"
       d="m 75.87305,111.82422 c -0.757618,-0.007 -1.492943,0.31663 -1.949219,0.82617 -0.456277,0.50954 -0.654297,1.13981 -0.654297,1.75195 0,0.61214 0.19802,1.24437 0.654297,1.75391 0.456276,0.50954 1.191601,0.83338 1.949219,0.82617 h 58.25391 c 0.75761,0.007 1.49294,-0.31663 1.94921,-0.82617 0.45628,-0.50954 0.6543,-1.14177 0.6543,-1.75391 0,-0.61214 -0.19802,-1.24241 -0.6543,-1.75195 -0.45627,-0.50954 -1.1916,-0.83338 -1.94921,-0.82617 z m -0.02344,2.57812 a 1.290129,1.290129 0 0 0 0.01172,0 h 58.27734 a 1.290129,1.290129 0 0 0 0.0117,0 c 0,0.002 1.3e-4,-1.8e-4 0,0.002 a 1.290129,1.290129 0 0 0 -0.0117,0 H 75.86133 a 1.290129,1.290129 0 0 0 -0.01172,0 c -1.28e-4,-0.002 0,3.2e-4 0,-0.002 z"
       style="color:#000000;font-style:normal;font-variant:normal;font-weight:normal;font-stretch:normal;font-size:medium;line-height:normal;font-family:sans-serif;font-variant-ligatures:normal;font-variant-position:normal;font-variant-caps:normal;font-variant-numeric:normal;font-variant-alternates:normal;font-feature-settings:normal;text-indent:0;text-align:start;text-decoration:none;text-decoration-line:none;text-decoration-style:solid;text-decoration-color:#000000;letter-spacing:normal;word-spacing:normal;text-transform:none;writing-mode:lr-tb;direction:ltr;text-orientation:mixed;dominant-baseline:auto;baseline-shift:baseline;text-anchor:start;white-space:normal;shape-padding:0;clip-rule:nonzero;display:inline;overflow:visible;visibility:visible;opacity:1;isolation:auto;mix-blend-mode:normal;color-interpolation:sRGB;color-interpolation-filters:linearRGB;solid-color:#000000;solid-opacity:1;vector-effect:none;fill:#000000;fill-opacity:1;fill-rule:nonzero;stroke:none;stroke-width:2.57999992;stroke-linecap:round;stroke-linejoin:round;stroke-miterlimit:4;stroke-dasharray:none;stroke-dashoffset:0;stroke-opacity:1;color-rendering:auto;image-rendering:auto;shape-rendering:auto;text-rendering:auto;enable-background:accumulate" />
    <path
       id="path817"
       d="m 75.87305,131.17383 c -0.757618,-0.007 -1.492943,0.31663 -1.949219,0.82617 -0.456277,0.50954 -0.654297,1.14177 -0.654297,1.75391 0,0.61214 0.19802,1.24241 0.654297,1.75195 0.456276,0.50954 1.191601,0.83338 1.949219,0.82617 h 58.25391 c 0.75761,0.007 1.49294,-0.31663 1.94921,-0.82617 0.45628,-0.50954 0.6543,-1.13981 0.6543,-1.75195 0,-0.61214 -0.19802,-1.24437 -0.6543,-1.75391 -0.45627,-0.50954 -1.1916,-0.83338 -1.94921,-0.82617 z m -0.02344,2.57812 a 1.290129,1.290129 0 0 0 0.01172,0 h 58.27734 a 1.290129,1.290129 0 0 0 0.0117,0 c 1.3e-4,0.002 0,-3.2e-4 0,0.002 a 1.290129,1.290129 0 0 0 -0.0117,0 H 75.86133 a 1.290129,1.290129 0 0 0 -0.01172,0 c 0,-0.002 -1.28e-4,1.8e-4 0,-0.002 z"
       style="color:#000000;font-style:normal;font-variant:normal;font-weight:normal;font-stretch:normal;font-size:medium;line-height:normal;font-family:sans-serif;font-variant-ligatures:normal;font-variant-position:normal;font-variant-caps:normal;font-variant-numeric:normal;font-variant-alternates:normal;font-feature-settings:normal;text-indent:0;text-align:start;text-decoration:none;text-decoration-line:none;text-decoration-style:solid;text-decoration-color:#000000;letter-spacing:normal;word-spacing:normal;text-transform:none;writing-mode:lr-tb;direction:ltr;text-orientation:mixed;dominant-baseline:auto;baseline-shift:baseline;text-anchor:start;white-space:normal;shape-padding:0;clip-rule:nonzero;display:inline;overflow:visible;visibility:visible;opacity:1;isolation:auto;mix-blend-mode:normal;color-interpolation:sRGB;color-interpolation-filters:linearRGB;solid-color:#000000;solid-opacity:1;vector-effect:none;fill:#000000;fill-opacity:1;fill-rule:nonzero;stroke:none;stroke-width:2.57999992;stroke-linecap:round;stroke-linejoin:round;stroke-miterlimit:4;stroke-dasharray:none;stroke-dashoffset:0;stroke-opacity:1;color-rendering:auto;image-rendering:auto;shape-rendering:auto;text-rendering:auto;enable-background:accumulate" />
    <path
       id="path819"
       d="m 75.875002,150.52148 c -0.75783,-0.008 -1.494692,0.31657 -1.951172,0.82618 -0.45648,0.5096 -0.65625,1.13968 -0.65625,1.75195 0,0.61226 0.19977,1.2443 0.65625,1.75391 0.45648,0.5096 1.193342,0.83368 1.951172,0.82617 H 134.125 c 0.75783,0.008 1.49469,-0.31657 1.95117,-0.82617 0.45648,-0.50961 0.65625,-1.14165 0.65625,-1.75391 0,-0.61227 -0.19977,-1.24235 -0.65625,-1.75195 -0.45648,-0.50961 -1.19334,-0.83369 -1.95117,-0.82618 z m -0.02734,2.57813 a 1.290129,1.290129 0 0 0 0.01367,0 h 58.277348 a 1.290129,1.290129 0 0 0 0.0137,0 c 0,0.002 1.3e-4,-2.1e-4 0,0.002 a 1.290129,1.290129 0 0 0 -0.0137,0 H 75.861332 a 1.290129,1.290129 0 0 0 -0.01367,0 c -1.31e-4,-0.002 0,3.6e-4 0,-0.002 z"
       style="color:#000000;font-style:normal;font-variant:normal;font-weight:normal;font-stretch:normal;font-size:medium;line-height:normal;font-family:sans-serif;font-variant-ligatures:normal;font-variant-position:normal;font-variant-caps:normal;font-variant-numeric:normal;font-variant-alternates:normal;font-feature-settings:normal;text-indent:0;text-align:start;text-decoration:none;text-decoration-line:none;text-decoration-style:solid;text-decoration-color:#000000;letter-spacing:normal;word-spacing:normal;text-transform:none;writing-mode:lr-tb;direction:ltr;text-orientation:mixed;dominant-baseline:auto;baseline-shift:baseline;text-anchor:start;white-space:normal;shape-padding:0;clip-rule:nonzero;display:inline;overflow:visible;visibility:visible;opacity:1;isolation:auto;mix-blend-mode:normal;color-interpolation:sRGB;color-interpolation-filters:linearRGB;solid-color:#000000;solid-opacity:1;vector-effect:none;fill:#000000;fill-opacity:1;fill-rule:nonzero;stroke:none;stroke-width:2.57999992;stroke-linecap:round;stroke-linejoin:round;stroke-miterlimit:4;stroke-dasharray:none;stroke-dashoffset:0;stroke-opacity:1;color-rendering:auto;image-rendering:auto;shape-rendering:auto;text-rendering:auto;enable-background:accumulate" />
  </g>
</svg>
